<mxfile host="65bd71144e">
    <diagram id="Bfho9MbJD9CMaUYdENyA" name="Page-1">
        <mxGraphModel dx="896" dy="614" grid="1" gridSize="10" guides="1" tooltips="1" connect="1" arrows="1" fold="1" page="1" pageScale="1" pageWidth="850" pageHeight="1100" math="0" shadow="0">
            <root>
                <mxCell id="0"/>
                <mxCell id="1" parent="0"/>
                <mxCell id="2" value="Cabecera" style="rounded=0;whiteSpace=wrap;html=1;" vertex="1" parent="1">
                    <mxGeometry x="70" y="20" width="740" height="80" as="geometry"/>
                </mxCell>
                <mxCell id="3" value="Menu de navegacion" style="rounded=0;whiteSpace=wrap;html=1;" vertex="1" parent="1">
                    <mxGeometry x="70" y="100" width="740" height="50" as="geometry"/>
                </mxCell>
                <mxCell id="5" value="Descripcion de la navidad" style="rounded=0;whiteSpace=wrap;html=1;" vertex="1" parent="1">
                    <mxGeometry x="130" y="170" width="610" height="230" as="geometry"/>
                </mxCell>
                <mxCell id="7" value="Tradicion de la navidad en el colegio" style="rounded=0;whiteSpace=wrap;html=1;" vertex="1" parent="1">
                    <mxGeometry x="130" y="420" width="610" height="250" as="geometry"/>
                </mxCell>
                <mxCell id="8" value="Imagenes explicativas" style="rounded=0;whiteSpace=wrap;html=1;" vertex="1" parent="1">
                    <mxGeometry x="130" y="690" width="290" height="220" as="geometry"/>
                </mxCell>
                <mxCell id="10" value="Imagenes explicativas" style="rounded=0;whiteSpace=wrap;html=1;" vertex="1" parent="1">
                    <mxGeometry x="450" y="690" width="290" height="220" as="geometry"/>
                </mxCell>
                <mxCell id="12" value="Pie de pagina" style="rounded=0;whiteSpace=wrap;html=1;" vertex="1" parent="1">
                    <mxGeometry x="70" y="930" width="730" height="150" as="geometry"/>
                </mxCell>
            </root>
        </mxGraphModel>
    </diagram>
</mxfile>